<mxfile host="app.diagrams.net" modified="2023-05-09T09:15:26.613Z" agent="Mozilla/5.0 (Macintosh; Intel Mac OS X 10_15_7) AppleWebKit/537.36 (KHTML, like Gecko) Chrome/112.0.0.0 Safari/537.36" etag="o82-AJ9yo8lxgpZp63NG" version="21.2.9" type="github">
  <diagram id="C5RBs43oDa-KdzZeNtuy" name="Page-1">
    <mxGraphModel dx="954" dy="508" grid="1" gridSize="10" guides="1" tooltips="1" connect="1" arrows="1" fold="1" page="1" pageScale="1" pageWidth="827" pageHeight="1169" math="0" shadow="0">
      <root>
        <mxCell id="WIyWlLk6GJQsqaUBKTNV-0" />
        <mxCell id="WIyWlLk6GJQsqaUBKTNV-1" parent="WIyWlLk6GJQsqaUBKTNV-0" />
        <mxCell id="6A_zgCMAa2eM95Z4ZsYA-3" style="edgeStyle=orthogonalEdgeStyle;rounded=0;orthogonalLoop=1;jettySize=auto;html=1;exitX=0.5;exitY=1;exitDx=0;exitDy=0;exitPerimeter=0;entryX=0.5;entryY=0;entryDx=0;entryDy=0;" parent="WIyWlLk6GJQsqaUBKTNV-1" source="6A_zgCMAa2eM95Z4ZsYA-0" target="6A_zgCMAa2eM95Z4ZsYA-2" edge="1">
          <mxGeometry relative="1" as="geometry" />
        </mxCell>
        <mxCell id="6A_zgCMAa2eM95Z4ZsYA-0" value="模型开始" style="strokeWidth=2;html=1;shape=mxgraph.flowchart.start_2;whiteSpace=wrap;fontSize=14;" parent="WIyWlLk6GJQsqaUBKTNV-1" vertex="1">
          <mxGeometry x="165" y="60" width="60" height="60" as="geometry" />
        </mxCell>
        <mxCell id="6A_zgCMAa2eM95Z4ZsYA-5" value="" style="edgeStyle=orthogonalEdgeStyle;rounded=0;orthogonalLoop=1;jettySize=auto;html=1;" parent="WIyWlLk6GJQsqaUBKTNV-1" source="6A_zgCMAa2eM95Z4ZsYA-2" target="6A_zgCMAa2eM95Z4ZsYA-4" edge="1">
          <mxGeometry relative="1" as="geometry" />
        </mxCell>
        <mxCell id="6A_zgCMAa2eM95Z4ZsYA-2" value="初始化、&lt;br style=&quot;font-size: 14px;&quot;&gt;设置运行状态" style="rounded=1;whiteSpace=wrap;html=1;absoluteArcSize=1;arcSize=14;strokeWidth=2;fontSize=14;" parent="WIyWlLk6GJQsqaUBKTNV-1" vertex="1">
          <mxGeometry x="105" y="160" width="180" height="60" as="geometry" />
        </mxCell>
        <mxCell id="6A_zgCMAa2eM95Z4ZsYA-11" value="" style="edgeStyle=orthogonalEdgeStyle;rounded=0;orthogonalLoop=1;jettySize=auto;html=1;" parent="WIyWlLk6GJQsqaUBKTNV-1" source="6A_zgCMAa2eM95Z4ZsYA-4" target="6A_zgCMAa2eM95Z4ZsYA-10" edge="1">
          <mxGeometry relative="1" as="geometry" />
        </mxCell>
        <mxCell id="6A_zgCMAa2eM95Z4ZsYA-4" value="调用算子&lt;br&gt;调用的算子类型可能为：常规算子、组合算子、自定义算子" style="whiteSpace=wrap;html=1;fontSize=14;rounded=1;arcSize=14;strokeWidth=2;fillColor=#dae8fc;strokeColor=#6c8ebf;" parent="WIyWlLk6GJQsqaUBKTNV-1" vertex="1">
          <mxGeometry x="90" y="270" width="210" height="60" as="geometry" />
        </mxCell>
        <mxCell id="6A_zgCMAa2eM95Z4ZsYA-13" value="" style="edgeStyle=orthogonalEdgeStyle;rounded=0;orthogonalLoop=1;jettySize=auto;html=1;" parent="WIyWlLk6GJQsqaUBKTNV-1" source="6A_zgCMAa2eM95Z4ZsYA-10" target="6A_zgCMAa2eM95Z4ZsYA-12" edge="1">
          <mxGeometry relative="1" as="geometry" />
        </mxCell>
        <mxCell id="6A_zgCMAa2eM95Z4ZsYA-10" value="模型训练不断迭代，保存模型参数" style="whiteSpace=wrap;html=1;fontSize=14;rounded=1;arcSize=14;strokeWidth=2;" parent="WIyWlLk6GJQsqaUBKTNV-1" vertex="1">
          <mxGeometry x="135" y="390" width="120" height="60" as="geometry" />
        </mxCell>
        <mxCell id="6A_zgCMAa2eM95Z4ZsYA-12" value="模型训练完毕" style="ellipse;whiteSpace=wrap;html=1;fontSize=14;rounded=1;arcSize=14;strokeWidth=2;" parent="WIyWlLk6GJQsqaUBKTNV-1" vertex="1">
          <mxGeometry x="145" y="490" width="100" height="80" as="geometry" />
        </mxCell>
        <mxCell id="6A_zgCMAa2eM95Z4ZsYA-16" value="" style="edgeStyle=orthogonalEdgeStyle;rounded=0;orthogonalLoop=1;jettySize=auto;html=1;" parent="WIyWlLk6GJQsqaUBKTNV-1" source="6A_zgCMAa2eM95Z4ZsYA-14" target="6A_zgCMAa2eM95Z4ZsYA-15" edge="1">
          <mxGeometry relative="1" as="geometry" />
        </mxCell>
        <mxCell id="6A_zgCMAa2eM95Z4ZsYA-14" value="开始" style="strokeWidth=2;html=1;shape=mxgraph.flowchart.start_2;whiteSpace=wrap;" parent="WIyWlLk6GJQsqaUBKTNV-1" vertex="1">
          <mxGeometry x="490" y="55" width="76" height="70" as="geometry" />
        </mxCell>
        <mxCell id="6A_zgCMAa2eM95Z4ZsYA-18" value="" style="edgeStyle=orthogonalEdgeStyle;rounded=0;orthogonalLoop=1;jettySize=auto;html=1;" parent="WIyWlLk6GJQsqaUBKTNV-1" source="6A_zgCMAa2eM95Z4ZsYA-15" target="6A_zgCMAa2eM95Z4ZsYA-17" edge="1">
          <mxGeometry relative="1" as="geometry" />
        </mxCell>
        <mxCell id="6A_zgCMAa2eM95Z4ZsYA-15" value="框架为张量批量挂载 API" style="whiteSpace=wrap;html=1;strokeWidth=2;" parent="WIyWlLk6GJQsqaUBKTNV-1" vertex="1">
          <mxGeometry x="468" y="160" width="120" height="60" as="geometry" />
        </mxCell>
        <mxCell id="6A_zgCMAa2eM95Z4ZsYA-20" value="" style="edgeStyle=orthogonalEdgeStyle;rounded=0;orthogonalLoop=1;jettySize=auto;html=1;" parent="WIyWlLk6GJQsqaUBKTNV-1" source="6A_zgCMAa2eM95Z4ZsYA-17" target="6A_zgCMAa2eM95Z4ZsYA-19" edge="1">
          <mxGeometry relative="1" as="geometry" />
        </mxCell>
        <mxCell id="6A_zgCMAa2eM95Z4ZsYA-17" value="调用张量API" style="whiteSpace=wrap;html=1;strokeWidth=2;" parent="WIyWlLk6GJQsqaUBKTNV-1" vertex="1">
          <mxGeometry x="468" y="260" width="120" height="60" as="geometry" />
        </mxCell>
        <mxCell id="6A_zgCMAa2eM95Z4ZsYA-22" value="" style="edgeStyle=orthogonalEdgeStyle;rounded=0;orthogonalLoop=1;jettySize=auto;html=1;" parent="WIyWlLk6GJQsqaUBKTNV-1" source="6A_zgCMAa2eM95Z4ZsYA-19" target="6A_zgCMAa2eM95Z4ZsYA-21" edge="1">
          <mxGeometry relative="1" as="geometry" />
        </mxCell>
        <mxCell id="6A_zgCMAa2eM95Z4ZsYA-23" value="自定义算子？" style="edgeLabel;html=1;align=center;verticalAlign=middle;resizable=0;points=[];" parent="6A_zgCMAa2eM95Z4ZsYA-22" vertex="1" connectable="0">
          <mxGeometry x="-0.1183" y="1" relative="1" as="geometry">
            <mxPoint y="1" as="offset" />
          </mxGeometry>
        </mxCell>
        <mxCell id="6A_zgCMAa2eM95Z4ZsYA-25" value="" style="edgeStyle=orthogonalEdgeStyle;rounded=0;orthogonalLoop=1;jettySize=auto;html=1;" parent="WIyWlLk6GJQsqaUBKTNV-1" source="6A_zgCMAa2eM95Z4ZsYA-19" target="6A_zgCMAa2eM95Z4ZsYA-24" edge="1">
          <mxGeometry relative="1" as="geometry" />
        </mxCell>
        <mxCell id="6A_zgCMAa2eM95Z4ZsYA-26" value="组合算子？" style="edgeLabel;html=1;align=center;verticalAlign=middle;resizable=0;points=[];" parent="6A_zgCMAa2eM95Z4ZsYA-25" vertex="1" connectable="0">
          <mxGeometry x="-0.1143" y="1" relative="1" as="geometry">
            <mxPoint as="offset" />
          </mxGeometry>
        </mxCell>
        <mxCell id="6A_zgCMAa2eM95Z4ZsYA-19" value="以调用 abs API 为例&lt;br&gt;判断算子实现类型，&lt;br&gt;根据算子类型决定运行模式" style="rhombus;whiteSpace=wrap;html=1;strokeWidth=2;" parent="WIyWlLk6GJQsqaUBKTNV-1" vertex="1">
          <mxGeometry x="438" y="360" width="180" height="100" as="geometry" />
        </mxCell>
        <mxCell id="6A_zgCMAa2eM95Z4ZsYA-39" style="edgeStyle=orthogonalEdgeStyle;rounded=0;orthogonalLoop=1;jettySize=auto;html=1;exitX=0.5;exitY=1;exitDx=0;exitDy=0;entryX=0.5;entryY=0;entryDx=0;entryDy=0;" parent="WIyWlLk6GJQsqaUBKTNV-1" source="6A_zgCMAa2eM95Z4ZsYA-21" target="6A_zgCMAa2eM95Z4ZsYA-35" edge="1">
          <mxGeometry relative="1" as="geometry">
            <Array as="points">
              <mxPoint x="985" y="870" />
              <mxPoint x="528" y="870" />
            </Array>
          </mxGeometry>
        </mxCell>
        <mxCell id="6A_zgCMAa2eM95Z4ZsYA-21" value="前向运算模式&lt;br&gt;不需要区分运行状态&lt;br&gt;最终匹配并调用框架内的 abs(x, y)函数" style="whiteSpace=wrap;html=1;strokeWidth=2;" parent="WIyWlLk6GJQsqaUBKTNV-1" vertex="1">
          <mxGeometry x="900" y="380" width="170" height="60" as="geometry" />
        </mxCell>
        <mxCell id="6A_zgCMAa2eM95Z4ZsYA-28" value="" style="edgeStyle=orthogonalEdgeStyle;rounded=0;orthogonalLoop=1;jettySize=auto;html=1;" parent="WIyWlLk6GJQsqaUBKTNV-1" source="6A_zgCMAa2eM95Z4ZsYA-24" target="6A_zgCMAa2eM95Z4ZsYA-27" edge="1">
          <mxGeometry relative="1" as="geometry" />
        </mxCell>
        <mxCell id="6A_zgCMAa2eM95Z4ZsYA-24" value="自动微分模式" style="whiteSpace=wrap;html=1;strokeWidth=2;" parent="WIyWlLk6GJQsqaUBKTNV-1" vertex="1">
          <mxGeometry x="468" y="530" width="120" height="60" as="geometry" />
        </mxCell>
        <mxCell id="6A_zgCMAa2eM95Z4ZsYA-30" value="" style="edgeStyle=orthogonalEdgeStyle;rounded=0;orthogonalLoop=1;jettySize=auto;html=1;" parent="WIyWlLk6GJQsqaUBKTNV-1" source="6A_zgCMAa2eM95Z4ZsYA-27" target="6A_zgCMAa2eM95Z4ZsYA-29" edge="1">
          <mxGeometry relative="1" as="geometry" />
        </mxCell>
        <mxCell id="6A_zgCMAa2eM95Z4ZsYA-31" value="动态图？" style="edgeLabel;html=1;align=center;verticalAlign=middle;resizable=0;points=[];" parent="6A_zgCMAa2eM95Z4ZsYA-30" vertex="1" connectable="0">
          <mxGeometry x="-0.5111" y="1" relative="1" as="geometry">
            <mxPoint as="offset" />
          </mxGeometry>
        </mxCell>
        <mxCell id="6A_zgCMAa2eM95Z4ZsYA-33" value="" style="edgeStyle=orthogonalEdgeStyle;rounded=0;orthogonalLoop=1;jettySize=auto;html=1;" parent="WIyWlLk6GJQsqaUBKTNV-1" source="6A_zgCMAa2eM95Z4ZsYA-27" target="6A_zgCMAa2eM95Z4ZsYA-32" edge="1">
          <mxGeometry relative="1" as="geometry" />
        </mxCell>
        <mxCell id="6A_zgCMAa2eM95Z4ZsYA-34" value="静态图？" style="edgeLabel;html=1;align=center;verticalAlign=middle;resizable=0;points=[];" parent="6A_zgCMAa2eM95Z4ZsYA-33" vertex="1" connectable="0">
          <mxGeometry x="-0.3147" y="3" relative="1" as="geometry">
            <mxPoint y="1" as="offset" />
          </mxGeometry>
        </mxCell>
        <mxCell id="6A_zgCMAa2eM95Z4ZsYA-27" value="判断当前运行状态" style="rhombus;whiteSpace=wrap;html=1;strokeWidth=2;" parent="WIyWlLk6GJQsqaUBKTNV-1" vertex="1">
          <mxGeometry x="459" y="630" width="138" height="80" as="geometry" />
        </mxCell>
        <mxCell id="6A_zgCMAa2eM95Z4ZsYA-36" value="" style="edgeStyle=orthogonalEdgeStyle;rounded=0;orthogonalLoop=1;jettySize=auto;html=1;" parent="WIyWlLk6GJQsqaUBKTNV-1" source="6A_zgCMAa2eM95Z4ZsYA-29" target="6A_zgCMAa2eM95Z4ZsYA-35" edge="1">
          <mxGeometry relative="1" as="geometry" />
        </mxCell>
        <mxCell id="6A_zgCMAa2eM95Z4ZsYA-29" value="自动微分下的动态图状态，匹配并调用 abs_ad_func(x, y)函数" style="whiteSpace=wrap;html=1;strokeWidth=2;" parent="WIyWlLk6GJQsqaUBKTNV-1" vertex="1">
          <mxGeometry x="432" y="780" width="192" height="60" as="geometry" />
        </mxCell>
        <mxCell id="6A_zgCMAa2eM95Z4ZsYA-38" style="edgeStyle=orthogonalEdgeStyle;rounded=0;orthogonalLoop=1;jettySize=auto;html=1;exitX=0.5;exitY=1;exitDx=0;exitDy=0;entryX=0.5;entryY=0;entryDx=0;entryDy=0;" parent="WIyWlLk6GJQsqaUBKTNV-1" source="6A_zgCMAa2eM95Z4ZsYA-32" target="6A_zgCMAa2eM95Z4ZsYA-35" edge="1">
          <mxGeometry relative="1" as="geometry">
            <Array as="points">
              <mxPoint x="800" y="870" />
              <mxPoint x="528" y="870" />
            </Array>
          </mxGeometry>
        </mxCell>
        <mxCell id="6A_zgCMAa2eM95Z4ZsYA-32" value="自动微分下的静态图状态，构造 abs 算子类，调用 abs 类中的 Apply 函数" style="whiteSpace=wrap;html=1;strokeWidth=2;" parent="WIyWlLk6GJQsqaUBKTNV-1" vertex="1">
          <mxGeometry x="690" y="640" width="220" height="60" as="geometry" />
        </mxCell>
        <mxCell id="6A_zgCMAa2eM95Z4ZsYA-41" value="" style="edgeStyle=orthogonalEdgeStyle;rounded=0;orthogonalLoop=1;jettySize=auto;html=1;" parent="WIyWlLk6GJQsqaUBKTNV-1" source="6A_zgCMAa2eM95Z4ZsYA-35" target="6A_zgCMAa2eM95Z4ZsYA-40" edge="1">
          <mxGeometry relative="1" as="geometry" />
        </mxCell>
        <mxCell id="6A_zgCMAa2eM95Z4ZsYA-35" value="完成当前API的调用" style="whiteSpace=wrap;html=1;strokeWidth=2;" parent="WIyWlLk6GJQsqaUBKTNV-1" vertex="1">
          <mxGeometry x="468" y="920" width="120" height="60" as="geometry" />
        </mxCell>
        <mxCell id="6A_zgCMAa2eM95Z4ZsYA-42" style="edgeStyle=orthogonalEdgeStyle;rounded=0;orthogonalLoop=1;jettySize=auto;html=1;exitX=0;exitY=0.5;exitDx=0;exitDy=0;entryX=0;entryY=0.5;entryDx=0;entryDy=0;" parent="WIyWlLk6GJQsqaUBKTNV-1" source="6A_zgCMAa2eM95Z4ZsYA-40" target="6A_zgCMAa2eM95Z4ZsYA-17" edge="1">
          <mxGeometry relative="1" as="geometry">
            <Array as="points">
              <mxPoint x="370" y="1070" />
              <mxPoint x="370" y="290" />
            </Array>
          </mxGeometry>
        </mxCell>
        <mxCell id="6A_zgCMAa2eM95Z4ZsYA-43" value="否" style="edgeLabel;html=1;align=center;verticalAlign=middle;resizable=0;points=[];" parent="6A_zgCMAa2eM95Z4ZsYA-42" vertex="1" connectable="0">
          <mxGeometry x="-0.5714" relative="1" as="geometry">
            <mxPoint as="offset" />
          </mxGeometry>
        </mxCell>
        <mxCell id="6A_zgCMAa2eM95Z4ZsYA-45" value="" style="edgeStyle=orthogonalEdgeStyle;rounded=0;orthogonalLoop=1;jettySize=auto;html=1;" parent="WIyWlLk6GJQsqaUBKTNV-1" source="6A_zgCMAa2eM95Z4ZsYA-40" target="6A_zgCMAa2eM95Z4ZsYA-44" edge="1">
          <mxGeometry relative="1" as="geometry" />
        </mxCell>
        <mxCell id="6A_zgCMAa2eM95Z4ZsYA-46" value="是" style="edgeLabel;html=1;align=center;verticalAlign=middle;resizable=0;points=[];" parent="6A_zgCMAa2eM95Z4ZsYA-45" vertex="1" connectable="0">
          <mxGeometry x="-0.35" y="-3" relative="1" as="geometry">
            <mxPoint as="offset" />
          </mxGeometry>
        </mxCell>
        <mxCell id="6A_zgCMAa2eM95Z4ZsYA-40" value="调用完成算子内的所有API？" style="rhombus;whiteSpace=wrap;html=1;strokeWidth=2;" parent="WIyWlLk6GJQsqaUBKTNV-1" vertex="1">
          <mxGeometry x="420" y="1030" width="216" height="80" as="geometry" />
        </mxCell>
        <mxCell id="6A_zgCMAa2eM95Z4ZsYA-44" value="结束" style="ellipse;whiteSpace=wrap;html=1;strokeWidth=2;" parent="WIyWlLk6GJQsqaUBKTNV-1" vertex="1">
          <mxGeometry x="488" y="1160" width="80" height="80" as="geometry" />
        </mxCell>
        <mxCell id="7Lg_QilPs1h0rLuK9KO--3" value="" style="edgeStyle=orthogonalEdgeStyle;rounded=0;orthogonalLoop=1;jettySize=auto;html=1;" edge="1" parent="WIyWlLk6GJQsqaUBKTNV-1" source="7Lg_QilPs1h0rLuK9KO--0" target="7Lg_QilPs1h0rLuK9KO--2">
          <mxGeometry relative="1" as="geometry" />
        </mxCell>
        <mxCell id="7Lg_QilPs1h0rLuK9KO--4" value="动态图状态下" style="edgeLabel;html=1;align=center;verticalAlign=middle;resizable=0;points=[];" vertex="1" connectable="0" parent="7Lg_QilPs1h0rLuK9KO--3">
          <mxGeometry x="-0.1194" y="2" relative="1" as="geometry">
            <mxPoint y="1" as="offset" />
          </mxGeometry>
        </mxCell>
        <mxCell id="7Lg_QilPs1h0rLuK9KO--6" style="edgeStyle=orthogonalEdgeStyle;rounded=0;orthogonalLoop=1;jettySize=auto;html=1;exitX=0.5;exitY=1;exitDx=0;exitDy=0;entryX=0;entryY=0.5;entryDx=0;entryDy=0;" edge="1" parent="WIyWlLk6GJQsqaUBKTNV-1" source="7Lg_QilPs1h0rLuK9KO--0" target="7Lg_QilPs1h0rLuK9KO--5">
          <mxGeometry relative="1" as="geometry" />
        </mxCell>
        <mxCell id="7Lg_QilPs1h0rLuK9KO--7" value="静态图状态下" style="edgeLabel;html=1;align=center;verticalAlign=middle;resizable=0;points=[];" vertex="1" connectable="0" parent="7Lg_QilPs1h0rLuK9KO--6">
          <mxGeometry x="0.4015" y="-2" relative="1" as="geometry">
            <mxPoint y="1" as="offset" />
          </mxGeometry>
        </mxCell>
        <mxCell id="7Lg_QilPs1h0rLuK9KO--9" style="edgeStyle=orthogonalEdgeStyle;rounded=0;orthogonalLoop=1;jettySize=auto;html=1;exitX=0.5;exitY=0;exitDx=0;exitDy=0;entryX=0;entryY=0.5;entryDx=0;entryDy=0;" edge="1" parent="WIyWlLk6GJQsqaUBKTNV-1" source="7Lg_QilPs1h0rLuK9KO--0" target="7Lg_QilPs1h0rLuK9KO--8">
          <mxGeometry relative="1" as="geometry" />
        </mxCell>
        <mxCell id="7Lg_QilPs1h0rLuK9KO--10" value="前向运算模式下" style="edgeLabel;html=1;align=center;verticalAlign=middle;resizable=0;points=[];" vertex="1" connectable="0" parent="7Lg_QilPs1h0rLuK9KO--9">
          <mxGeometry x="0.5758" y="-1" relative="1" as="geometry">
            <mxPoint y="1" as="offset" />
          </mxGeometry>
        </mxCell>
        <mxCell id="7Lg_QilPs1h0rLuK9KO--0" value="add" style="rounded=1;whiteSpace=wrap;html=1;" vertex="1" parent="WIyWlLk6GJQsqaUBKTNV-1">
          <mxGeometry x="100" y="1390" width="120" height="60" as="geometry" />
        </mxCell>
        <mxCell id="7Lg_QilPs1h0rLuK9KO--2" value="eager_operants&lt;br&gt;add_ad_func" style="whiteSpace=wrap;html=1;rounded=1;" vertex="1" parent="WIyWlLk6GJQsqaUBKTNV-1">
          <mxGeometry x="354" y="1390" width="120" height="60" as="geometry" />
        </mxCell>
        <mxCell id="7Lg_QilPs1h0rLuK9KO--5" value="static_operants&lt;br&gt;class里的成员函数" style="whiteSpace=wrap;html=1;rounded=1;" vertex="1" parent="WIyWlLk6GJQsqaUBKTNV-1">
          <mxGeometry x="354" y="1490" width="120" height="60" as="geometry" />
        </mxCell>
        <mxCell id="7Lg_QilPs1h0rLuK9KO--8" value="phi_operants&lt;br&gt;add" style="whiteSpace=wrap;html=1;rounded=1;" vertex="1" parent="WIyWlLk6GJQsqaUBKTNV-1">
          <mxGeometry x="354" y="1290" width="120" height="60" as="geometry" />
        </mxCell>
      </root>
    </mxGraphModel>
  </diagram>
</mxfile>
